<?xml version="1.0" encoding="UTF-8"?>
<svg id="Layer_1" data-name="Layer 1" xmlns="http://www.w3.org/2000/svg" viewBox="0 0 195.5 140">
  <defs>
    <style>
      .cls-1 {
        fill: #762932;
      }
    </style>
  </defs>
  <path class="cls-1" d="M58.9,57.4c-4.4,4.4-9.5,6.5-15.8,6.5-13.4-.1-26.7,0-40.1,0H.2c0-.4-.1-.8-.1-1.2,0-5.5,0-11.1,0-16.6,9.1-1.8,15.9-9.7,15.9-19.3S9.1,9.1,0,7.3V2.8C0,1.7.8,2,1.5,2c5.2,0,10.4,0,15.6,0,9.2,0,18.4,0,27.5,0,4.1,0,7.7,1.2,10.7,4.2,4.2,4.2,5,10.7,1.9,15.8-.3.5-.7,1.1-.8,1.2,1.2,1.4,2.3,2.7,3.4,4,7.6,8.5,7.1,22.3-.9,30.3Z"/>
  <path class="cls-1" d="M135,62c0,1.4-.4,1.8-1.9,1.7-3.8,0-7.6,0-11.4,0-1.9-9.2-10-16.1-19.7-16.1s-17.8,6.9-19.7,16h-13c0-.3-.2-.5-.2-.7,0-11.3-.5-22.7.2-33.9C70.4,11.7,86.5-.7,103.5,0c14.2.6,26.5,10.1,30.2,23.8,2.3,9.3,1.2,25.5,1.3,38.2Z"/>
  <path class="cls-1" d="M135.1,122.2c0,5.4,0,10.9,0,16.3,0,1-.2,1.4-1.3,1.4-20.7,0-43.7,0-64.4,0-.2,0-.3,0-.7-.1v-67.4h13.8c2.1,8.8,10.1,15.4,19.5,15.4s17.4-6.6,19.5-15.4h13.5v1.6c0,7.9,0,15.8,0,23.6,0,1.3-.4,1.6-1.6,1.6-2.8,0-6.6,0-9.3,0-6.1,0-10.7,4.6-10.8,10.7,0,6.2,4.8,11.1,10.8,11.1,3.2,0,7.5,0,10.8,0,0,.5.2.8.2,1.1Z"/>
  <path class="cls-1" d="M195.4,53.9v9.8h-8.5s0,0,0-.1c-.2-8.5-6.8-15.3-15.2-15.9-.4,0-.7,0-1.1,0-8.9,0-16.1,7.1-16.3,16,0,0-.1,0-.2,0-4.7,0-9.5,0-14.4,0,0-.5-.1-1-.1-1.5,0-19.5,0-39.1,0-58.6,0-1.4.3-1.8,1.8-1.8,10.2,0,20.3,0,30.5,0,7.1,0,13,2.4,17.7,7.7,6.6,7.6,7.7,18.5,2.1,26.7-.2.3-.4.6-.6.8-1,1.5-1,1.5.6,2.2,2.7,1.1,3.7,2.6,3.7,5.5,0,3,0,6.1,0,9.1Z"/>
  <path class="cls-1" d="M60.9,129.5c-4.8,7-11.3,10.6-19.9,10.5-12.5-.2-26.2,0-38.7,0H.6v-25.3c1.7-.2,3.2-.5,4.7-1.1,1.8-.7,4.1-1.6,5.6-2.9,5.2-4.1,7.6-11.5,5.8-18-.7-2.8-2.2-5.3-4.2-7.3-2.7-4-7.4-6.9-12.2-8.1,0-1.6,0-3.2,0-5,.8,0,1.3,0,1.8,0,13.2,0,27.6,0,40.8,0,7.7,0,13.5,4.3,15.2,11.2,1,4,.3,7.7-2.1,11.1-.8,1.1-.7,1.7.4,2.6,9.5,7.9,11.4,22.3,4.4,32.5Z"/>
  <path class="cls-1" d="M195.5,91.9c0,15,0,29.9,0,44.9s0,2,0,3h-56.1v-67.6h13.8c-.6,0,1.6,8.3,1.9,9,1.2,2.9,3,5.6,5.2,7.9,4.8,4.9,11.5,7.3,18.3,7.5,6,.2,12-1.5,16.9-4.8,0,0,0,0,0,0Z"/>
</svg>